<?xml version="1.0" encoding="UTF-8"?>
<svg id="Layer_1" data-name="Layer 1" xmlns="http://www.w3.org/2000/svg" viewBox="0 0 28.99 28.99">
  <defs>
    <style>
      .cls-1 {
        fill: #3465ae;
      }
    </style>
  </defs>
  <path class="cls-1" d="M15.51,0v9.46S19.12.72,19.12.72l1.85.77-3.65,8.8,6.77-6.7,1.41,1.42-6.69,6.62,8.7-3.59.76,1.85-8.74,3.61h9.45v2h-9.48l8.75,3.63-.77,1.85-8.75-3.63,6.69,6.71-1.42,1.41-6.66-6.68,3.62,8.71-1.85.77-3.65-8.77v9.5s-2.01,0-2.01,0v-9.46s-3.61,8.74-3.61,8.74l-1.85-.77,3.65-8.8-6.77,6.71-1.41-1.42,6.69-6.62-8.7,3.59-.76-1.85,8.74-3.61H0v-2h9.48L.72,9.86l.77-1.85,8.75,3.63L3.55,4.94l1.42-1.41,6.66,6.68L8.01,1.5l1.85-.77,3.65,8.77V0s2.01,0,2.01,0Z"/>
</svg>